<svg id="Capa_1" data-name="Capa 1" xmlns="http://www.w3.org/2000/svg" viewBox="0 0 1080 1080"><defs><style>.cls-1{fill:#3d5a80;}.cls-2{fill:#98c1d9;opacity:0.85;}.cls-3{fill:#1f2e41;}</style></defs><title>Logo Color - White Background</title><path class="cls-2" d="M750.86,387.66,559,195.74l-18-18-38.87-38.87c-.32-.32-.63-.66-1-1a5.35,5.35,0,0,0-.67-.46c-.77.45-173.84,173.43-232.83,232.61-12,12.06-19.3,19.4-19.43,19.6.43.45.86.94,1.32,1.41l18.11,18.1,231.3,231.31c.36.36.71.74,1.06,1.11h.88c.19-.23.39-.47.61-.69l39.15-39.16,18-18L751.51,390.82c.22-.22.46-.42.7-.63v-1.11C751.77,388.61,751.33,388.12,750.86,387.66ZM539.84,565l-18,18-21.47,21.48-202-202q-6.52-6.51-13-13s0,.08,0,.12v-.15l0,0c.21-.25.42-.51.65-.75q5.87-5.85,11.72-11.72L500,174.58a.45.45,0,0,1,.16-.09l22,22,18,18L715.27,389.56Z"/><polygon class="cls-1" points="225.49 723.73 274.66 862.13 273.39 864.18 247.82 864.18 197.87 723.73 225.49 723.73"/><polygon class="cls-2" points="324.52 723.73 284.46 834.6 270.75 795.91 296.99 723.73 324.52 723.73"/><path class="cls-1" d="M424.52,723.73v26.15H366.34v31.34h58.18v25.47H366.34V838h58.18v26.15H340.19V723.73Z"/><path class="cls-1" d="M487.6,864.18q-28.22,0-42.9-29.28l21.84-13q9.6,18,21.74,18a17.71,17.71,0,0,0,11.17-3.72q4.31-4,4.31-8.72a17,17,0,0,0-3-9.3,70.42,70.42,0,0,0-5.68-5.63q-3.72-3.39-9.3-8.09-10.68-8.91-17.68-15.72a78.56,78.56,0,0,1-10.24-11.6q-6.85-9.79-6.85-19.2a32.25,32.25,0,0,1,10.57-24.19,37.41,37.41,0,0,1,26.06-10,38.79,38.79,0,0,1,19.29,5,45.16,45.16,0,0,1,9.5,6.47,115.63,115.63,0,0,1,10.39,10.28l-19.3,16.75q-9.69-13.62-19.88-13.61-5.69,0-8,2.44a7.64,7.64,0,0,0-3.14,6.27,11.86,11.86,0,0,0,1.86,6.07q1.86,2,6.52,6.13T497,780.24q8.82,7.35,13.42,11.66c2,1.83,3.53,3.13,4.51,3.92q13.71,13.21,13.71,30.36,0,16.85-11.27,27.42T487.6,864.18Z"/><path class="cls-1" d="M622,723.73h26.15v89a49.67,49.67,0,0,1-4.06,20A51.86,51.86,0,0,1,633,849.1a52.8,52.8,0,0,1-16.36,11,51.44,51.44,0,0,1-40.06,0,51.73,51.73,0,0,1-27.32-27.33,49.68,49.68,0,0,1-4.07-20v-89h26.15v89.62a24.46,24.46,0,0,0,2,9.89,25.73,25.73,0,0,0,5.44,8,25.1,25.1,0,0,0,8,5.39,24.67,24.67,0,0,0,9.79,2,25,25,0,0,0,9.9-2,25.32,25.32,0,0,0,8-5.39,25.87,25.87,0,0,0,5.43-8,24.46,24.46,0,0,0,2-9.89Z"/><path class="cls-1" d="M733.93,723.73l.69,2L720.91,761l-19,48.29h37.9l-9.11-22.82,13.71-35.36,43.79,113H760l-10.38-28.79h-57.5l-11.75,28.79H652.93L707.1,723.73Z"/><path class="cls-1" d="M830.31,723.73V838.62h51.82v25.56H804.26V723.73Z"/><path class="cls-3" d="M373.13,942v-32.5h2.25V942Z"/><path class="cls-3" d="M411.18,942h-9.35v-32.5h9.35a16,16,0,0,1,6.4,1.27,14.69,14.69,0,0,1,5.1,3.63,15.81,15.81,0,0,1,3.15,5.15,17.74,17.74,0,0,1,0,12.3,16.58,16.58,0,0,1-3.15,5.2,14.41,14.41,0,0,1-5.1,3.67A16,16,0,0,1,411.18,942Zm-7.1-2.25h7.1a12.61,12.61,0,0,0,9.85-4.25,12.93,12.93,0,0,0,2.67-4.43,15.85,15.85,0,0,0,0-10.7,12.9,12.9,0,0,0-12.52-8.57h-7.1Z"/><path class="cls-3" d="M450.73,942v-32.5h21v2.3H453v12.8h14.65v2.3H453v12.75h18.8V942Z"/><path class="cls-3" d="M498.88,915.61V942h-2.25v-32.9l22.5,26.9v-26.5h2.25v33Z"/><path class="cls-3" d="M572.68,909.51v2.3H559.83V942h-2.3v-30.2h-12.9v-2.3Z"/><path class="cls-3" d="M596.78,942v-32.5H599V942Z"/><path class="cls-3" d="M650.93,909.51v2.3H638.08V942h-2.3v-30.2h-12.9v-2.3Z"/><path class="cls-3" d="M687.83,928.31l12.8-18.8h2.7l-14.4,21.25V942h-2.25V930.76l-14.4-21.25H675Z"/></svg>
